<svg id="visual" viewBox="0 0 900 600" width="900" height="600" xmlns="http://www.w3.org/2000/svg" xmlns:xlink="http://www.w3.org/1999/xlink" version="1.1"><g transform="translate(815.821577973286 -138.78948694637137)"><path d="M272 -392.8C371.8 -359.2 485.2 -316.3 568.6 -231.1C652.1 -145.8 705.6 -18.3 665.5 78.8C625.3 176 491.4 242.9 392.5 318.7C293.5 394.6 229.6 479.4 127.8 571.7C25.9 664 -113.8 763.8 -202.5 722.7C-291.2 681.6 -328.9 499.6 -381.8 369.3C-434.7 239.1 -502.9 160.6 -510.1 76.5C-517.2 -7.6 -463.3 -97.3 -413.4 -181.5C-363.5 -265.7 -317.7 -344.4 -249.5 -392.4C-181.3 -440.4 -90.6 -457.7 -2.3 -454.2C86.1 -450.7 172.3 -426.4 272 -392.8" fill="#0000ff42"></path></g></svg>